<?xml version="1.0" encoding="utf-8"?><svg xmlns="http://www.w3.org/2000/svg" xmlns:xlink="http://www.w3.org/1999/xlink"><symbol viewBox="0 0 962.043 184.253" id="investment_logos--sonos-logo" xmlns="http://www.w3.org/2000/svg"><path fill="#222" d="M436.401 65.328v111.263h-25.698V2.498l114.998 116.19V6.829h25.712v174.729L436.401 65.328zM702.791 0c-50.31 0-91.225 41.263-91.225 92.021 0 50.734 40.915 91.994 91.225 91.994 50.295 0 91.229-41.26 91.229-91.994C794.02 41.263 753.086 0 702.791 0zm0 157.884c-35.659 0-64.693-29.553-64.693-65.863 0-36.315 29.034-65.863 64.693-65.863 35.674 0 64.676 29.548 64.676 65.863 0 36.311-29.002 65.863-64.676 65.863zM259.239 0c-50.309 0-91.226 41.263-91.226 92.021 0 50.734 40.917 91.994 91.226 91.994 50.319 0 91.225-41.26 91.225-91.994C350.464 41.263 309.559 0 259.239 0zm0 157.884c-35.674 0-64.672-29.553-64.672-65.863 0-36.315 28.998-65.863 64.672-65.863 35.662 0 64.69 29.548 64.69 65.863.001 36.311-29.028 65.863-64.69 65.863zM56.113 104.947l-.104-.044c-17.176-5.502-28.673-10.924-37.335-17.602C6.292 77.788 0 65.648 0 51.226 0 37.72 6.227 24.558 17.078 15.042 28.164 5.335 43.44 0 60.078 0c34.827 0 54.729 23.405 55.564 24.409l-21.132 14.4c-4.894-3.688-17.753-11.967-34.433-11.967-20.949 0-33.471 12.396-33.471 24.384 0 8.363 4.547 17.559 37.448 28.12l.127.021c17.131 5.486 28.67 10.924 37.322 17.583 12.394 9.534 18.677 21.674 18.677 36.098 0 13.505-6.229 26.688-17.103 36.184-11.062 9.688-26.333 15.021-42.989 15.021-34.816 0-54.72-23.383-55.553-24.392l21.149-14.399c4.887 3.695 17.746 11.971 34.403 11.971 20.958 0 33.49-12.371 33.49-24.385.003-8.363-4.532-17.561-37.464-28.101zm841.867 0l-.114-.044c-17.163-5.502-28.672-10.924-37.317-17.603-12.374-9.515-18.693-21.655-18.693-36.077 0-13.506 6.244-26.667 17.103-36.183C870.007 5.335 885.268 0 901.951 0c34.825 0 54.738 23.405 55.584 24.409l-21.159 14.4c-4.883-3.688-17.742-11.967-34.425-11.967-20.966 0-33.492 12.396-33.492 24.384 0 8.363 4.553 17.559 37.479 28.12l.128.021c17.151 5.486 28.65 10.924 37.317 17.583 12.36 9.534 18.66 21.674 18.66 36.098 0 13.505-6.225 26.688-17.067 36.184-11.079 9.688-26.354 15.021-43.021 15.021-34.817 0-54.705-23.383-55.546-24.392l21.138-14.399c4.901 3.695 17.724 11.971 34.408 11.971 20.979 0 33.476-12.371 33.476-24.385-.004-8.363-4.535-17.561-37.451-28.101z"/></symbol><symbol viewBox="0 0 256 295" preserveAspectRatio="xMinYMin meet" id="svg--bitbucket" xmlns="http://www.w3.org/2000/svg"><g fill="#205081"><path d="M128 0C57.732 0 .012 18.822.012 42.663c0 6.274 15.057 95.364 21.331 130.498 2.51 16.312 43.918 38.898 106.657 38.898 62.74 0 102.893-22.586 106.657-38.898 6.274-35.134 21.331-124.224 21.331-130.498C254.734 18.822 198.268 0 128 0zm0 183.199c-22.586 0-40.153-17.567-40.153-40.153s17.567-40.153 40.153-40.153 40.153 17.567 40.153 40.153c0 21.331-17.567 40.153-40.153 40.153zm0-127.988c-45.172 0-81.561-7.53-81.561-17.567 0-10.039 36.389-17.567 81.561-17.567 45.172 0 81.561 7.528 81.561 17.567 0 10.038-36.389 17.567-81.561 17.567z"/><path d="M220.608 207.04c-2.51 0-3.764 1.255-3.764 1.255s-31.37 25.096-87.835 25.096c-56.466 0-87.835-25.096-87.835-25.096s-2.51-1.255-3.765-1.255c-2.51 0-5.019 1.255-5.019 5.02v1.254c5.02 26.35 8.784 45.172 8.784 47.682 3.764 18.822 41.408 33.88 86.58 33.88s82.816-15.058 86.58-33.88c0-2.51 3.765-21.332 8.784-47.682v-1.255c1.255-2.51 0-5.019-2.51-5.019z"/><circle cx="128" cy="141.791" r="20.077"/></g></symbol><symbol viewBox="0 0 1024 1024" id="svg--github" xmlns="http://www.w3.org/2000/svg"><path d="M512 0C229.25 0 0 229.25 0 512c0 226.25 146.688 418.125 350.156 485.812 25.594 4.688 34.938-11.125 34.938-24.625 0-12.188-.469-52.562-.719-95.312C242 908.812 211.906 817.5 211.906 817.5c-23.312-59.125-56.844-74.875-56.844-74.875-46.531-31.75 3.53-31.125 3.53-31.125 51.406 3.562 78.47 52.75 78.47 52.75 45.688 78.25 119.875 55.625 149 42.5 4.654-33 17.904-55.625 32.5-68.375-113.656-12.937-233.218-56.875-233.218-253.063 0-55.938 19.969-101.562 52.656-137.406-5.219-13-22.844-65.094 5.062-135.562 0 0 42.938-13.75 140.812 52.5 40.812-11.406 84.594-17.031 128.125-17.219 43.5.188 87.312 5.875 128.188 17.281 97.688-66.312 140.688-52.5 140.688-52.5 28 70.531 10.375 122.562 5.125 135.5 32.812 35.844 52.625 81.469 52.625 137.406 0 196.688-119.75 240-233.812 252.688 18.438 15.875 34.75 47 34.75 94.75 0 68.438-.688 123.625-.688 140.5 0 13.625 9.312 29.562 35.25 24.562C877.438 930 1024 738.125 1024 512 1024 229.25 794.75 0 512 0z"/></symbol><symbol viewBox="0 0 210 194" id="svg--gitlab" xmlns="http://www.w3.org/2000/svg"><title>Group</title><g fill="none" fill-rule="evenodd"><path d="M105.061 193.655l38.64-118.921h-77.28l38.64 118.921z" fill="#E24329"/><path d="M105.061 193.655L66.421 74.734H12.268l92.793 118.92z" fill="#FC6D26"/><path d="M12.268 74.734L.526 110.874a8 8 0 0 0 2.907 8.943l101.628 73.838-92.793-118.92z" fill="#FCA326"/><path d="M12.268 74.734h54.153L43.148 3.11c-1.197-3.686-6.41-3.685-7.608 0L12.27 74.734z" fill="#E24329"/><path d="M105.061 193.655l38.64-118.921h54.153l-92.793 118.92z" fill="#FC6D26"/><path d="M197.854 74.734l11.742 36.14a8 8 0 0 1-2.906 8.943l-101.629 73.838 92.793-118.92z" fill="#FCA326"/><path d="M197.854 74.734h-54.153L166.974 3.11c1.197-3.686 6.411-3.685 7.608 0l23.272 71.625z" fill="#E24329"/></g></symbol></svg>